<?xml version="1.0" encoding="UTF-8"?>
<svg xmlns="http://www.w3.org/2000/svg" width="16" height="16" viewBox="0 0 16 16" fill="none">
    <g id="Icons/Menu/language">
        <path id="icon" d="M7.99992 14.6667C7.08881 14.6667 6.2277 14.4917 5.41659 14.1417C4.60547 13.7917 3.89714 13.3139 3.29159 12.7084C2.68603 12.1028 2.20825 11.3945 1.85825 10.5834C1.50825 9.77226 1.33325 8.91115 1.33325 8.00004C1.33325 7.07782 1.50825 6.21393 1.85825 5.40837C2.20825 4.60282 2.68603 3.89726 3.29159 3.29171C3.89714 2.68615 4.60547 2.20837 5.41659 1.85837C6.2277 1.50837 7.08881 1.33337 7.99992 1.33337C8.92214 1.33337 9.78603 1.50837 10.5916 1.85837C11.3971 2.20837 12.1027 2.68615 12.7083 3.29171C13.3138 3.89726 13.7916 4.60282 14.1416 5.40837C14.4916 6.21393 14.6666 7.07782 14.6666 8.00004C14.6666 8.91115 14.4916 9.77226 14.1416 10.5834C13.7916 11.3945 13.3138 12.1028 12.7083 12.7084C12.1027 13.3139 11.3971 13.7917 10.5916 14.1417C9.78603 14.4917 8.92214 14.6667 7.99992 14.6667ZM7.99992 13.3C8.28881 12.9 8.53881 12.4834 8.74992 12.05C8.96103 11.6167 9.13325 11.1556 9.26659 10.6667H6.73325C6.86659 11.1556 7.03881 11.6167 7.24992 12.05C7.46103 12.4834 7.71103 12.9 7.99992 13.3ZM6.26659 13.0334C6.06659 12.6667 5.89159 12.2862 5.74159 11.8917C5.59159 11.4973 5.46659 11.0889 5.36659 10.6667H3.39992C3.72214 11.2223 4.12492 11.7056 4.60825 12.1167C5.09159 12.5278 5.64436 12.8334 6.26659 13.0334ZM9.73325 13.0334C10.3555 12.8334 10.9083 12.5278 11.3916 12.1167C11.8749 11.7056 12.2777 11.2223 12.5999 10.6667H10.6333C10.5333 11.0889 10.4083 11.4973 10.2583 11.8917C10.1083 12.2862 9.93325 12.6667 9.73325 13.0334ZM2.83325 9.33337H5.09992C5.06659 9.11115 5.04159 8.89171 5.02492 8.67504C5.00825 8.45837 4.99992 8.23337 4.99992 8.00004C4.99992 7.76671 5.00825 7.54171 5.02492 7.32504C5.04159 7.10837 5.06659 6.88893 5.09992 6.66671H2.83325C2.7777 6.88893 2.73603 7.10837 2.70825 7.32504C2.68047 7.54171 2.66659 7.76671 2.66659 8.00004C2.66659 8.23337 2.68047 8.45837 2.70825 8.67504C2.73603 8.89171 2.7777 9.11115 2.83325 9.33337ZM6.43325 9.33337H9.56659C9.59992 9.11115 9.62492 8.89171 9.64159 8.67504C9.65825 8.45837 9.66659 8.23337 9.66659 8.00004C9.66659 7.76671 9.65825 7.54171 9.64159 7.32504C9.62492 7.10837 9.59992 6.88893 9.56659 6.66671H6.43325C6.39992 6.88893 6.37492 7.10837 6.35825 7.32504C6.34159 7.54171 6.33325 7.76671 6.33325 8.00004C6.33325 8.23337 6.34159 8.45837 6.35825 8.67504C6.37492 8.89171 6.39992 9.11115 6.43325 9.33337ZM10.8999 9.33337H13.1666C13.2221 9.11115 13.2638 8.89171 13.2916 8.67504C13.3194 8.45837 13.3333 8.23337 13.3333 8.00004C13.3333 7.76671 13.3194 7.54171 13.2916 7.32504C13.2638 7.10837 13.2221 6.88893 13.1666 6.66671H10.8999C10.9333 6.88893 10.9583 7.10837 10.9749 7.32504C10.9916 7.54171 10.9999 7.76671 10.9999 8.00004C10.9999 8.23337 10.9916 8.45837 10.9749 8.67504C10.9583 8.89171 10.9333 9.11115 10.8999 9.33337ZM10.6333 5.33337H12.5999C12.2777 4.77782 11.8749 4.29449 11.3916 3.88337C10.9083 3.47226 10.3555 3.16671 9.73325 2.96671C9.93325 3.33337 10.1083 3.71393 10.2583 4.10837C10.4083 4.50282 10.5333 4.91115 10.6333 5.33337ZM6.73325 5.33337H9.26659C9.13325 4.84449 8.96103 4.38337 8.74992 3.95004C8.53881 3.51671 8.28881 3.10004 7.99992 2.70004C7.71103 3.10004 7.46103 3.51671 7.24992 3.95004C7.03881 4.38337 6.86659 4.84449 6.73325 5.33337ZM3.39992 5.33337H5.36659C5.46659 4.91115 5.59159 4.50282 5.74159 4.10837C5.89159 3.71393 6.06659 3.33337 6.26659 2.96671C5.64436 3.16671 5.09159 3.47226 4.60825 3.88337C4.12492 4.29449 3.72214 4.77782 3.39992 5.33337Z" fill="white">
        </path>
    </g>
</svg> 